<svg xmlns="http://www.w3.org/2000/svg" xmlns:xlink="http://www.w3.org/1999/xlink" width="400" zoomAndPan="magnify" viewBox="0 0 300 599.999999" height="800" preserveAspectRatio="xMidYMid meet" version="1.0"><defs><clipPath id="f8c4fb6890"><path d="M -91.96875 462.359375 L 137.640625 -91.96875 L 691.96875 137.640625 L 462.359375 691.96875 Z M -91.96875 462.359375 " clip-rule="nonzero"/></clipPath><clipPath id="85319f5bed"><path d="M -91.96875 462.359375 L 137.640625 -91.96875 L 691.96875 137.640625 L 462.359375 691.96875 Z M -91.96875 462.359375 " clip-rule="nonzero"/></clipPath></defs><g clip-path="url(#f8c4fb6890)"><g clip-path="url(#85319f5bed)"><path fill="#45151b" d="M 222.367188 579.492188 C 233.605469 582.617188 245.113281 585.09375 256.628906 586.808594 L 255.175781 596.597656 C 243.265625 594.722656 231.3125 592.214844 219.8125 588.980469 Z M 291.242188 599.921875 C 303.300781 600.332031 315.421875 599.847656 327.5 598.738281 L 326.546875 588.867188 C 314.96875 589.878906 303.160156 590.335938 291.550781 589.960938 Z M 379.980469 10.78125 C 368.351562 7.492188 356.398438 4.988281 344.617188 3.164062 L 343.164062 12.953125 C 354.679688 14.667969 366.1875 17.140625 377.425781 20.269531 Z M 363.257812 593.21875 C 374.984375 590.742188 386.773438 587.371094 398.148438 583.523438 L 394.957031 574.253906 C 383.898438 578.078125 372.660156 581.21875 361.25 583.675781 Z M 541.808594 477.652344 C 548.902344 467.902344 555.582031 457.679688 561.429688 447.261719 L 552.726562 442.433594 C 546.992188 452.589844 540.605469 462.480469 533.800781 471.890625 Z M 431.597656 569.558594 C 442.492188 564.289062 453.082031 558.285156 463.125 551.746094 L 457.71875 543.390625 C 447.914062 549.722656 437.75 555.449219 427.222656 560.5625 Z M 16.570312 398.109375 C 20.417969 409.488281 25.207031 420.792969 30.402344 431.503906 L 39.210938 427.207031 C 34.226562 416.734375 29.71875 405.851562 25.839844 394.917969 Z M 189.070312 567.992188 C 178.375 563.5625 167.816406 558.425781 157.789062 552.742188 L 152.960938 561.445312 C 163.25 567.234375 174.199219 572.53125 185.289062 577.125 L 185.550781 577.234375 L 189.332031 568.101562 Z M 13.101562 256.667969 L 3.3125 255.210938 C 1.433594 267.121094 0.394531 279.222656 0.117188 291.335938 L 9.949219 291.585938 C 10.324219 279.972656 11.386719 268.1875 13.101562 256.667969 Z M 11.042969 326.582031 L 1.171875 327.539062 C 2.335938 339.484375 4.207031 351.570312 6.6875 363.296875 L 16.414062 361.210938 C 13.957031 349.800781 12.183594 338.214844 11.042969 326.582031 Z M 56.515625 457.757812 L 48.164062 463.164062 C 54.703125 473.207031 61.921875 483.078125 69.675781 492.402344 L 77.332031 486.097656 C 69.917969 477.066406 62.847656 467.566406 56.515625 457.757812 Z M 101.359375 511.488281 L 94.585938 518.617188 C 103.402344 526.851562 112.695312 534.675781 122.441406 541.769531 L 128.332031 533.816406 C 118.921875 527.015625 109.835938 519.433594 101.359375 511.488281 Z M 492.3125 530.359375 C 501.636719 522.609375 510.417969 514.324219 518.65625 505.507812 L 511.527344 498.734375 C 503.582031 507.210938 495.039062 515.289062 486.007812 522.707031 Z M 272.371094 1.207031 L 273.324219 11.082031 C 284.957031 9.9375 296.707031 9.609375 308.320312 9.984375 L 308.570312 0.15625 C 296.566406 -0.382812 284.316406 0.0429688 272.371094 1.207031 Z M 543.746094 142.347656 L 552.097656 136.945312 C 545.613281 126.769531 538.335938 117.03125 530.714844 107.757812 L 523.058594 114.0625 C 530.34375 123.042969 537.414062 132.542969 543.746094 142.347656 Z M 10.980469 219.71875 L 20.414062 222.40625 C 23.542969 211.167969 27.375 200.066406 31.859375 189.238281 L 22.726562 185.457031 C 18.082031 196.675781 14.085938 208.167969 10.980469 219.71875 Z M 498.902344 88.621094 L 505.675781 81.492188 C 496.859375 73.253906 487.566406 65.429688 477.820312 58.335938 L 471.925781 66.289062 C 481.335938 73.089844 490.421875 80.675781 498.902344 88.621094 Z M 574.238281 205.265625 L 583.507812 202.074219 C 579.53125 190.644531 574.867188 179.390625 569.675781 168.679688 L 560.863281 172.976562 C 566.035156 183.371094 570.542969 194.257812 574.238281 205.265625 Z M 410.460938 31.660156 L 410.984375 31.875 C 421.8125 36.359375 432.367188 41.5 442.527344 47.234375 L 447.296875 38.664062 C 436.878906 32.820312 425.929688 27.519531 414.710938 22.875 L 414.191406 22.65625 Z M 201.71875 16.421875 L 204.988281 25.878906 C 216.050781 22.050781 227.285156 18.910156 238.695312 16.453125 L 236.613281 6.726562 C 224.886719 9.207031 213.097656 12.574219 201.71875 16.421875 Z M 586.976562 343.515625 L 596.765625 344.972656 C 598.640625 333.0625 599.679688 320.960938 600.089844 308.902344 L 590.257812 308.652344 C 589.75 320.210938 588.6875 331.996094 586.976562 343.515625 Z M 38.464844 153 L 47.164062 157.828125 C 52.898438 147.667969 59.289062 137.78125 66.089844 128.371094 L 58.007812 122.425781 C 50.910156 132.171875 44.363281 142.453125 38.464844 153 Z M 568.140625 410.761719 L 577.273438 414.542969 C 581.867188 403.453125 585.914062 391.832031 589.148438 380.335938 L 579.714844 377.648438 C 576.457031 388.832031 572.570312 400.0625 568.140625 410.761719 Z M 81.160156 94.570312 L 88.289062 101.34375 C 96.234375 92.863281 104.777344 84.789062 113.808594 77.371094 L 107.449219 69.847656 C 98.363281 77.390625 89.398438 85.753906 81.160156 94.570312 Z M 136.742188 48.199219 L 142.148438 56.554688 C 151.957031 50.222656 162.175781 44.367188 172.648438 39.382812 L 168.347656 30.570312 C 157.507812 35.710938 146.789062 41.664062 136.742188 48.199219 Z M 589.035156 273.601562 L 598.90625 272.648438 C 597.742188 260.699219 596 248.667969 593.390625 236.886719 L 583.660156 238.972656 C 586.117188 250.382812 588.019531 262.023438 589.035156 273.601562 Z M 589.035156 273.601562 " fill-opacity="1" fill-rule="nonzero"/></g></g></svg>