<svg xmlns="http://www.w3.org/2000/svg" xmlns:xlink="http://www.w3.org/1999/xlink" width="1348" zoomAndPan="magnify" viewBox="0 0 1011 505.49999" height="674" preserveAspectRatio="xMidYMid meet" version="1.0"><defs><clipPath id="69829b6294"><path d="M 0.5 0 L 1010.5 0 L 1010.5 505 L 0.5 505 Z M 0.5 0 " clip-rule="nonzero"/></clipPath></defs><g clip-path="url(#69829b6294)"><path fill="#45151b" d="M 20.824219 564.308594 C 23.199219 583.800781 26.765625 603.289062 31.519531 622.308594 L 15.355469 626.347656 C 10.601562 606.617188 6.796875 586.414062 4.421875 566.445312 Z M 33.421875 684.585938 C 40.550781 703.601562 49.109375 722.140625 58.617188 740.207031 L 73.355469 732.363281 C 64.324219 715.011719 56.003906 696.945312 49.109375 678.644531 Z M 1006.816406 443.078125 C 1004.4375 422.875 1000.636719 402.667969 995.882812 383.175781 L 979.71875 387.21875 C 984.472656 406.234375 988.039062 425.726562 990.414062 445.21875 Z M 90.234375 792.265625 C 101.640625 808.902344 114.476562 825.066406 127.789062 840.28125 L 140.148438 829.347656 C 127.078125 814.609375 114.953125 799.15625 103.78125 782.996094 Z M 384.984375 995.5 C 404.714844 1000.253906 424.917969 1004.058594 444.886719 1006.433594 L 446.789062 989.796875 C 427.296875 987.417969 407.804688 983.855469 388.789062 979.335938 Z M 171.050781 883.304688 C 186.265625 896.855469 202.429688 909.453125 219.066406 920.863281 L 228.574219 907.074219 C 212.410156 895.902344 196.960938 883.78125 182.222656 870.707031 Z M 170.339844 127.410156 C 155.125 140.71875 140.625 155.457031 127.3125 170.433594 L 139.675781 181.367188 C 152.75 166.867188 166.773438 152.84375 181.273438 139.769531 Z M 17.257812 505.121094 C 17.257812 485.628906 18.445312 465.898438 20.824219 446.644531 L 4.183594 444.742188 C 1.808594 464.472656 0.617188 484.914062 0.617188 505.121094 L 0.617188 505.59375 L 17.257812 505.59375 Z M 388.074219 30.902344 L 384.035156 14.738281 C 364.304688 19.492188 344.8125 25.671875 325.796875 33.039062 L 331.738281 48.492188 C 350.042969 41.597656 369.058594 35.65625 388.074219 30.902344 Z M 278.019531 72.738281 L 270.171875 58 C 252.347656 67.507812 234.757812 78.203125 218.117188 89.613281 L 227.625 103.402344 C 243.789062 92.230469 260.664062 82.007812 278.019531 72.738281 Z M 103.304688 227.957031 L 89.519531 218.449219 C 78.109375 235.089844 67.414062 252.679688 57.90625 270.742188 L 72.640625 278.589844 C 81.914062 261.234375 92.132812 244.121094 103.304688 227.957031 Z M 48.632812 332.308594 L 33.183594 326.367188 C 26.050781 345.382812 19.871094 364.875 15.117188 384.605469 L 31.28125 388.644531 C 35.796875 369.628906 41.742188 350.613281 48.632812 332.308594 Z M 271.125 952.476562 C 289.191406 961.984375 307.730469 970.304688 326.746094 977.4375 L 332.691406 961.984375 C 314.386719 955.089844 296.320312 947.007812 278.96875 937.738281 Z M 952.382812 269.554688 L 937.644531 277.398438 C 946.914062 294.753906 954.996094 312.816406 961.890625 331.121094 L 977.339844 325.179688 C 970.449219 306.160156 961.890625 287.382812 952.382812 269.554688 Z M 907.695312 782.519531 L 921.480469 792.027344 C 933.128906 775.386719 943.585938 757.796875 953.09375 739.96875 L 938.359375 732.125 C 929.085938 749.242188 918.867188 766.355469 907.695312 782.519531 Z M 444.171875 3.804688 L 446.074219 20.203125 C 465.566406 17.828125 485.296875 16.640625 505.023438 16.640625 L 505.023438 0 C 484.582031 0 464.140625 1.1875 444.171875 3.804688 Z M 962.367188 678.167969 L 977.816406 684.109375 C 984.949219 665.09375 991.128906 645.601562 995.882812 625.871094 L 979.71875 621.832031 C 975.203125 640.847656 969.257812 659.863281 962.367188 678.167969 Z M 829.488281 870.46875 L 840.425781 882.828125 C 855.636719 869.28125 870.136719 854.78125 883.449219 839.804688 L 871.085938 828.871094 C 858.25 843.609375 844.226562 857.632812 829.488281 870.46875 Z M 993.980469 503.929688 L 993.980469 504.882812 C 993.980469 524.609375 992.792969 544.339844 990.414062 563.832031 L 1006.816406 565.734375 C 1009.191406 545.765625 1010.382812 525.324219 1010.382812 504.882812 L 1010.382812 503.929688 Z M 883.210938 169.480469 L 870.613281 180.65625 C 883.6875 195.390625 895.808594 210.84375 906.980469 227.007812 L 920.765625 217.5 C 909.359375 200.859375 896.523438 184.695312 883.210938 169.480469 Z M 622.6875 979.335938 L 626.730469 995.5 C 646.457031 990.746094 665.949219 984.566406 684.964844 977.4375 L 679.023438 961.984375 C 660.71875 968.640625 641.703125 974.582031 622.6875 979.335938 Z M 565.640625 3.566406 L 563.738281 20.203125 C 583.230469 22.582031 602.71875 26.148438 621.738281 30.664062 L 625.777344 14.261719 C 606.046875 9.507812 585.84375 5.941406 565.640625 3.566406 Z M 505.976562 993.363281 L 505.976562 1010 C 526.179688 1010 546.859375 1008.8125 566.828125 1006.433594 L 564.925781 990.035156 C 545.433594 992.171875 525.46875 993.363281 505.976562 993.363281 Z M 684.015625 32.328125 L 678.074219 47.777344 C 696.375 54.671875 714.441406 62.753906 731.792969 72.023438 L 739.398438 57.285156 C 721.808594 48.015625 703.03125 39.457031 684.015625 32.328125 Z M 791.933594 88.902344 L 782.425781 102.6875 C 798.589844 113.859375 814.277344 125.984375 828.777344 139.054688 L 839.710938 126.695312 C 824.734375 113.148438 808.570312 100.3125 791.933594 88.902344 Z M 732.746094 937.5 L 740.589844 952.238281 C 758.417969 942.730469 776.007812 932.273438 792.644531 920.625 L 783.136719 906.835938 C 766.972656 918.011719 750.097656 928.46875 732.746094 937.5 Z M 732.746094 937.5 " fill-opacity="1" fill-rule="nonzero"/></g></svg>