<svg xmlns="http://www.w3.org/2000/svg" xmlns:xlink="http://www.w3.org/1999/xlink" width="1366" zoomAndPan="magnify" viewBox="0 0 1024.5 516.74999" height="689" preserveAspectRatio="xMidYMid meet" version="1.0"><defs><g/><clipPath id="05cfd86d2f"><path d="M 13 2 L 1021 2 L 1021 516.5 L 13 516.5 Z M 13 2 " clip-rule="nonzero"/></clipPath></defs><g clip-path="url(#05cfd86d2f)"><path fill="#000000" d="M 85.804688 501.757812 L 80.167969 494.640625 C 87.800781 488.59375 95.933594 482.859375 105.027344 477.109375 L 109.871094 484.78125 C 101.054688 490.363281 93.183594 495.914062 85.804688 501.757812 Z M 135.507812 469.96875 L 131.234375 461.957031 C 139.105469 457.761719 147.65625 453.449219 158.136719 448.394531 L 162.082031 456.574219 C 151.707031 461.574219 143.261719 465.832031 135.503906 469.96875 Z M 189.105469 443.757812 L 185.230469 435.550781 C 193.835938 431.484375 203.046875 427.097656 212.097656 422.5625 L 216.167969 430.675781 C 207.03125 435.257812 197.765625 439.671875 189.105469 443.757812 Z M 242.816406 416.453125 L 238.289062 408.585938 C 246.953125 403.601562 255.296875 398.234375 263.105469 392.644531 L 268.386719 400.027344 C 260.335938 405.792969 251.730469 411.316406 242.816406 416.453125 Z M 292.125 380.925781 L 286.027344 374.199219 C 293.511719 367.40625 300.339844 360.296875 306.316406 353.066406 L 313.308594 358.855469 C 307.058594 366.417969 299.929688 373.839844 292.125 380.921875 Z M 330.761719 333.546875 L 322.839844 329.113281 C 327.691406 320.4375 331.480469 311.496094 334.101562 302.535156 L 342.8125 305.089844 C 339.996094 314.703125 335.941406 324.277344 330.761719 333.542969 Z M 347.691406 274.421875 L 338.617188 274.226562 L 338.636719 272.476562 C 338.636719 264.210938 337.292969 257.480469 334.511719 251.90625 C 333.875 250.621094 333.152344 249.386719 332.367188 248.195312 L 339.925781 243.175781 C 340.925781 244.6875 341.839844 246.261719 342.632812 247.855469 C 346.050781 254.71875 347.710938 262.773438 347.710938 272.472656 L 347.691406 274.417969 Z M 311.804688 228.695312 L 310.824219 227.929688 C 302.277344 221.246094 295.050781 214.964844 288.753906 208.757812 L 295.121094 202.289062 C 301.171875 208.253906 308.140625 214.308594 316.4375 220.796875 L 317.355469 221.519531 L 311.800781 228.695312 Z M 268.929688 185.148438 C 264.894531 179.109375 261.519531 172.875 258.886719 166.601562 C 257.585938 163.496094 256.445312 160.253906 255.484375 156.960938 L 264.207031 154.429688 C 265.0625 157.390625 266.089844 160.300781 267.257812 163.085938 C 269.664062 168.820312 272.765625 174.546875 276.472656 180.097656 L 268.933594 185.140625 Z M 465.722656 144.460938 C 457.285156 144.460938 449.9375 143.667969 443.265625 142.042969 L 445.410156 133.21875 C 451.375 134.675781 458.015625 135.378906 465.722656 135.378906 C 468.441406 135.378906 471.15625 135.289062 473.855469 135.140625 L 474.359375 144.207031 C 471.496094 144.367188 468.613281 144.460938 465.726562 144.460938 Z M 549.605469 141.25 C 541.160156 141.25 533.085938 140.039062 525.621094 137.65625 L 528.375 129.007812 C 536.878906 131.71875 546.484375 132.679688 556.238281 131.902344 L 556.957031 140.953125 C 554.5 141.148438 552.050781 141.25 549.605469 141.25 Z M 504.914062 139.261719 L 502.304688 130.5625 C 512.320312 127.5625 520.464844 123.125 526.515625 117.378906 L 532.765625 123.96875 C 525.671875 130.703125 516.300781 135.847656 504.914062 139.261719 Z M 587.292969 133.796875 L 583.988281 125.34375 C 585.605469 124.707031 587.199219 124.035156 588.777344 123.328125 C 595.621094 120.25 602.410156 116.46875 609.53125 111.753906 L 614.539062 119.324219 C 607 124.3125 599.792969 128.332031 592.496094 131.609375 C 590.789062 132.382812 589.054688 133.109375 587.292969 133.796875 Z M 415.328125 126.617188 C 411.46875 122.9375 407.917969 118.898438 404.496094 114.992188 C 401.949219 112.097656 399.320312 109.097656 396.640625 106.355469 C 396.074219 105.777344 395.5 105.195312 394.914062 104.625 L 401.261719 98.132812 C 401.890625 98.75 402.511719 99.371094 403.128906 100 C 405.984375 102.929688 408.691406 106.019531 411.316406 109.003906 C 414.761719 112.933594 418.015625 116.644531 421.585938 120.042969 L 415.332031 126.617188 Z M 261.402344 126.460938 L 252.363281 125.652344 C 253.375 114.34375 256.683594 104.167969 262.191406 95.40625 L 269.875 100.238281 C 265.136719 107.773438 262.289062 116.597656 261.402344 126.460938 Z M 498.582031 120.691406 C 491.136719 112.632812 485.824219 102.585938 483.625 92.394531 L 492.496094 90.480469 C 494.355469 99.109375 498.886719 107.644531 505.242188 114.527344 L 498.578125 120.691406 Z M 638.808594 100.945312 L 632.988281 93.980469 C 638.476562 89.386719 643.859375 84.664062 649.214844 79.957031 L 655.542969 74.414062 L 661.507812 81.253906 L 655.203125 86.78125 C 649.792969 91.535156 644.355469 96.304688 638.8125 100.945312 Z M 547.578125 95.199219 L 538.59375 93.933594 C 538.871094 91.9375 539.019531 89.875 539.023438 87.800781 C 539.023438 80.683594 537.332031 73.699219 534.132812 67.609375 L 542.171875 63.390625 C 546.050781 70.777344 548.097656 79.222656 548.097656 87.8125 C 548.09375 90.308594 547.917969 92.792969 547.578125 95.203125 Z M 371.929688 87.511719 C 363.503906 82.828125 354.53125 79.308594 345.265625 77.046875 L 347.417969 68.222656 C 357.472656 70.679688 367.195312 74.496094 376.332031 79.574219 Z M 290.019531 81.949219 L 285.84375 73.882812 C 294.835938 69.230469 305.078125 66.425781 316.28125 65.558594 L 316.980469 74.609375 C 306.992188 75.378906 297.917969 77.851562 290.015625 81.945312 Z M 495.6875 64.5625 L 487.773438 60.117188 C 494.125 48.800781 505.425781 41.800781 516.210938 42.757812 L 515.414062 51.800781 C 508.238281 51.132812 500.257812 56.421875 495.6875 64.558594 Z M 684.382812 62.4375 L 678.933594 55.179688 C 687.976562 48.375 696.421875 42.960938 704.742188 38.628906 L 708.933594 46.6875 C 701.054688 50.785156 693.027344 55.9375 684.382812 62.441406 Z M 735.882812 36.285156 L 733.542969 27.511719 C 742.972656 24.992188 752.863281 23.285156 763.773438 22.289062 L 764.59375 31.328125 C 754.207031 32.28125 744.808594 33.902344 735.882812 36.289062 Z M 823.644531 32.015625 C 812.1875 31.097656 802.773438 30.59375 794.015625 30.421875 L 794.191406 21.339844 C 803.140625 21.523438 812.722656 22.035156 824.367188 22.960938 L 823.648438 32.015625 Z M 65.6875 337.097656 C 25.320312 337.097656 0.0898438 380.824219 20.273438 415.800781 L 65.6875 494.5 L 111.105469 415.800781 C 131.289062 380.824219 106.058594 337.097656 65.6875 337.097656 Z M 65.6875 417.339844 C 49.96875 417.339844 37.222656 404.589844 37.222656 388.863281 C 37.222656 373.132812 49.96875 360.382812 65.6875 360.382812 C 81.410156 360.382812 94.15625 373.132812 94.15625 388.863281 C 94.15625 404.589844 81.410156 417.339844 65.6875 417.339844 Z M 65.6875 497.582031 C 60.421875 497.582031 56.15625 501.855469 56.15625 507.125 C 56.15625 512.390625 60.421875 516.664062 65.6875 516.664062 C 70.953125 516.664062 75.222656 512.390625 75.222656 507.125 C 75.222656 501.855469 70.953125 497.582031 65.6875 497.582031 Z M 1020.503906 51.265625 C 1020.910156 47.847656 1020.492188 44.734375 1018.335938 41.914062 C 1016.707031 39.78125 1015.136719 37.589844 1013.734375 35.304688 C 1010.625 30.230469 1006.007812 27.777344 1000.289062 26.617188 C 991.867188 24.90625 983.421875 23.488281 974.898438 22.40625 C 969.125 21.671875 963.464844 20.105469 957.722656 19.113281 C 955.347656 18.707031 953.425781 18.21875 953.265625 15.339844 C 953.242188 14.925781 952.914062 14.488281 952.625 14.136719 C 951.820312 13.164062 950.730469 12.121094 949.535156 12.609375 C 948.328125 13.101562 949.285156 14.398438 949.488281 15.253906 C 949.90625 17.007812 949.65625 17.550781 947.671875 17.128906 C 940.695312 15.644531 933.679688 14.339844 926.679688 12.945312 C 926.015625 12.8125 925.289062 12.667969 924.746094 12.300781 C 922.621094 10.855469 920.234375 10.273438 917.757812 10.410156 C 912.285156 10.714844 907.035156 9.320312 901.992188 7.75 C 894.984375 5.574219 887.886719 4.125 880.683594 3.054688 C 874.359375 2.121094 868.015625 1.671875 861.757812 3.601562 C 860.09375 3.953125 858.4375 4.335938 856.824219 4.839844 C 855.207031 5.34375 853.628906 5.964844 852.125 6.800781 C 849.046875 8.082031 847.597656 10.863281 846.269531 13.582031 C 840.628906 25.097656 838.3125 37.292969 839.253906 50.078125 C 839.453125 52.808594 839.710938 55.582031 841.460938 57.898438 C 843.480469 60.84375 846.386719 62.78125 849.222656 64.804688 C 852.5 67.394531 856.09375 69.410156 860.066406 70.730469 C 866.125 72.738281 872.339844 74.117188 878.625 75.175781 C 885.953125 76.410156 893.460938 76.273438 900.710938 78.128906 C 901.59375 78.355469 902.496094 78.421875 903.3125 78.957031 C 905.375 80.304688 907.8125 80.886719 910.132812 80.59375 C 912.667969 80.269531 914.992188 80.789062 917.378906 81.210938 C 922.816406 82.171875 928.246094 83.195312 933.679688 84.195312 C 936.910156 84.792969 936.964844 84.832031 935.222656 87.660156 C 934.3125 89.132812 934.78125 89.546875 936.277344 89.550781 C 938.09375 89.558594 939.25 88.535156 940.195312 87.125 C 940.75 86.296875 941.269531 85.554688 942.570312 85.800781 C 949.882812 87.175781 957.363281 87.929688 964.496094 89.921875 C 973.257812 92.363281 982.105469 94.011719 991.074219 95.269531 C 994.246094 95.714844 997.175781 95.121094 999.921875 93.539062 C 1003.179688 91.664062 1006.269531 89.511719 1009.4375 87.5 C 1012.652344 85.464844 1014.335938 82.636719 1015.257812 79.054688 C 1017.628906 69.902344 1019.398438 60.648438 1020.515625 51.257812 Z M 848.347656 63.296875 C 846.09375 61.550781 843.875 59.75 842.238281 57.359375 C 840.839844 53.644531 840.363281 49.8125 840.523438 45.777344 C 841.226562 46.019531 841.339844 46.367188 841.351562 46.765625 C 841.503906 53.726562 844.046875 59.492188 849.785156 63.667969 C 849.089844 64.414062 848.710938 63.582031 848.347656 63.300781 Z M 858.878906 5.988281 C 853.6875 7.273438 850.503906 10.800781 848.132812 15.335938 C 847.566406 16.421875 847.285156 17.789062 845.460938 18.8125 C 847.363281 14.246094 849.101562 10.320312 852.574219 7.449219 C 855.453125 6.265625 858.3125 5.015625 861.410156 4.476562 C 860.753906 5.292969 859.839844 5.75 858.882812 5.988281 Z M 916.597656 15.835938 C 928 17.730469 939.410156 19.609375 950.820312 21.496094 C 951.019531 21.53125 951.203125 21.664062 951.457031 21.773438 C 950.875 23.488281 949.878906 24.285156 947.992188 24.496094 C 936.003906 25.835938 924.148438 25.566406 912.484375 22.144531 C 911.90625 21.976562 911.328125 21.804688 910.34375 21.519531 C 911.984375 19.628906 913.394531 18.03125 914.761719 16.402344 C 915.277344 15.785156 915.859375 15.714844 916.597656 15.839844 Z M 885.507812 57.300781 C 885.417969 59.132812 884.683594 59.671875 882.949219 59.613281 C 876.585938 59.402344 870.222656 59.25 863.859375 59.15625 C 862.546875 59.136719 862.027344 58.710938 861.714844 57.410156 C 859.960938 50.117188 860.714844 42.929688 862.390625 35.714844 C 863.421875 28.710938 865.304688 21.96875 869.273438 15.914062 C 870.316406 14.316406 871.246094 14.035156 872.996094 14.71875 C 878.714844 16.945312 884.484375 19.039062 890.265625 21.089844 C 891.90625 21.671875 892.410156 22.410156 891.8125 24.160156 C 888.148438 34.902344 886.058594 45.960938 885.511719 57.300781 Z M 896.148438 14.769531 C 897.734375 13.953125 899.429688 13.25 901.195312 13.53125 C 905.328125 14.195312 909.429688 15.058594 913.757812 15.882812 C 912.441406 17.375 911.054688 18.886719 909.75 20.460938 C 909.183594 21.148438 908.582031 21.054688 907.90625 20.835938 C 903.984375 19.550781 900.0625 18.265625 896.152344 16.949219 C 895.667969 16.785156 895.058594 16.589844 894.980469 15.96875 C 894.886719 15.164062 895.625 15.039062 896.144531 14.773438 Z M 891.019531 70.875 C 888.945312 70.421875 887.308594 69.117188 885.957031 67.488281 C 885.621094 67.085938 885.152344 66.679688 885.480469 66.082031 C 885.730469 65.636719 886.253906 65.589844 886.695312 65.613281 C 890.96875 65.832031 895.242188 66.082031 899.515625 66.316406 C 900.210938 66.355469 900.625 66.667969 900.855469 67.34375 C 901.507812 69.289062 902.207031 71.21875 902.894531 73.164062 C 898.796875 72.382812 894.886719 71.714844 891.015625 70.875 Z M 906.800781 74.488281 C 904.996094 74.183594 904.082031 73.390625 903.5 71.644531 C 901.734375 66.332031 901.648438 66.425781 907.21875 67.152344 C 918.402344 68.609375 928.664062 72.6875 938.5 78.007812 C 939.109375 78.339844 939.78125 78.589844 939.847656 79.417969 C 939.882812 79.847656 940.167969 80.304688 940.210938 80.730469 L 922.390625 77.335938 L 922.378906 77.410156 C 917.1875 76.421875 912.007812 75.367188 906.800781 74.488281 Z M 964.71875 65.050781 C 963.367188 69.449219 961.722656 73.75 959.648438 77.863281 C 957.707031 81.695312 953.988281 83.066406 950.183594 81.25 C 944.164062 78.375 938.226562 75.34375 932.214844 72.46875 C 930.585938 71.691406 930.175781 70.757812 930.640625 69.015625 C 932.363281 62.566406 933.917969 56.078125 935.050781 49.492188 C 936.402344 42.949219 937.328125 36.34375 938.097656 29.714844 C 938.277344 28.160156 938.871094 27.410156 940.503906 27.285156 C 947.230469 26.769531 953.9375 26.113281 960.660156 25.59375 C 964.898438 25.265625 967.941406 27.824219 968.292969 32.085938 C 969.214844 43.296875 968.011719 54.292969 964.714844 65.046875 Z M 1004.035156 29.65625 C 1004.417969 29.089844 1005.011719 29.351562 1005.507812 29.453125 C 1006.796875 29.714844 1008.027344 30.113281 1008.914062 31.191406 C 1011.9375 34.855469 1014.878906 38.582031 1017.222656 42.738281 C 1017.660156 43.511719 1018.242188 44.285156 1017.6875 45.574219 C 1012.589844 41.171875 1008.296875 36.308594 1004.378906 31.101562 C 1004.066406 30.6875 1003.652344 30.21875 1004.035156 29.660156 Z M 1008.953125 86.101562 C 1005.296875 89.039062 1001.285156 91.433594 997.179688 93.671875 C 995.886719 94.382812 994.546875 94.367188 993.164062 94.15625 C 992.628906 94.078125 992.015625 93.988281 991.90625 93.351562 C 991.804688 92.722656 992.355469 92.441406 992.8125 92.164062 C 998.371094 88.75 1004.148438 85.792969 1010.503906 83.605469 C 1010.46875 85.019531 1009.652344 85.539062 1008.953125 86.101562 Z M 1008.953125 86.101562 " fill-opacity="1" fill-rule="nonzero"/></g><g fill="#ffffff" fill-opacity="1"><g transform="translate(0, 18.629736)"><g><path d="M 5.421875 0.1875 C 4.316406 0.1875 3.414062 -0.0625 2.71875 -0.5625 C 2.019531 -1.070312 1.578125 -1.769531 1.390625 -2.65625 L 2.515625 -3.171875 L 2.71875 -3.140625 C 2.914062 -2.484375 3.226562 -1.988281 3.65625 -1.65625 C 4.082031 -1.332031 4.671875 -1.171875 5.421875 -1.171875 C 6.492188 -1.171875 7.3125 -1.613281 7.875 -2.5 C 8.4375 -3.394531 8.71875 -4.773438 8.71875 -6.640625 L 8.53125 -6.6875 C 8.164062 -5.957031 7.707031 -5.410156 7.15625 -5.046875 C 6.613281 -4.691406 5.921875 -4.515625 5.078125 -4.515625 C 4.273438 -4.515625 3.578125 -4.6875 2.984375 -5.03125 C 2.390625 -5.382812 1.929688 -5.878906 1.609375 -6.515625 C 1.296875 -7.148438 1.140625 -7.894531 1.140625 -8.75 C 1.140625 -9.59375 1.316406 -10.335938 1.671875 -10.984375 C 2.023438 -11.628906 2.523438 -12.128906 3.171875 -12.484375 C 3.816406 -12.835938 4.566406 -13.015625 5.421875 -13.015625 C 6.929688 -13.015625 8.109375 -12.503906 8.953125 -11.484375 C 9.804688 -10.472656 10.234375 -8.832031 10.234375 -6.5625 C 10.234375 -5.03125 10.03125 -3.757812 9.625 -2.75 C 9.226562 -1.75 8.671875 -1.007812 7.953125 -0.53125 C 7.234375 -0.0507812 6.390625 0.1875 5.421875 0.1875 Z M 5.421875 -5.828125 C 6.003906 -5.828125 6.507812 -5.941406 6.9375 -6.171875 C 7.363281 -6.398438 7.691406 -6.734375 7.921875 -7.171875 C 8.148438 -7.609375 8.265625 -8.132812 8.265625 -8.75 C 8.265625 -9.351562 8.148438 -9.875 7.921875 -10.3125 C 7.691406 -10.757812 7.363281 -11.097656 6.9375 -11.328125 C 6.507812 -11.554688 6.003906 -11.671875 5.421875 -11.671875 C 4.578125 -11.671875 3.914062 -11.421875 3.4375 -10.921875 C 2.957031 -10.421875 2.71875 -9.695312 2.71875 -8.75 C 2.71875 -7.800781 2.957031 -7.078125 3.4375 -6.578125 C 3.914062 -6.078125 4.578125 -5.828125 5.421875 -5.828125 Z M 5.421875 -5.828125 "/></g></g></g></svg>