<svg xmlns="http://www.w3.org/2000/svg" xmlns:xlink="http://www.w3.org/1999/xlink" width="1366" zoomAndPan="magnify" viewBox="0 0 1024.5 168.749997" height="225" preserveAspectRatio="xMidYMid meet" version="1.0"><defs><g/><clipPath id="d5b92d7031"><path d="M 0.507812 0 L 1023.492188 0 L 1023.492188 168.5 L 0.507812 168.5 Z M 0.507812 0 " clip-rule="nonzero"/></clipPath><clipPath id="721ff9c427"><path d="M 0.507812 0.132812 L 1023.492188 0.132812 L 1023.492188 168.5 L 0.507812 168.5 Z M 0.507812 0.132812 " clip-rule="nonzero"/></clipPath><clipPath id="40ef3205cc"><path d="M 0.507812 155 L 1023.492188 155 L 1023.492188 163 L 0.507812 163 Z M 0.507812 155 " clip-rule="nonzero"/></clipPath><clipPath id="8c59cc6b80"><path d="M 0.507812 6 L 1023.492188 6 L 1023.492188 13 L 0.507812 13 Z M 0.507812 6 " clip-rule="nonzero"/></clipPath><clipPath id="d8ceece49d"><path d="M 0.507812 81 L 15 81 L 15 87 L 0.507812 87 Z M 0.507812 81 " clip-rule="nonzero"/></clipPath><clipPath id="38b16cf91d"><path d="M 1009 81 L 1023.492188 81 L 1023.492188 87 L 1009 87 Z M 1009 81 " clip-rule="nonzero"/></clipPath></defs><g clip-path="url(#d5b92d7031)"><path fill="#ffffff" d="M 0.507812 0 L 1023.492188 0 L 1023.492188 168.5 L 0.507812 168.5 Z M 0.507812 0 " fill-opacity="1" fill-rule="nonzero"/><path fill="#ffffff" d="M 0.507812 0 L 1023.492188 0 L 1023.492188 168.5 L 0.507812 168.5 Z M 0.507812 0 " fill-opacity="1" fill-rule="nonzero"/></g><g clip-path="url(#721ff9c427)"><path fill="#45151b" d="M 0.496094 168.363281 L 0.496094 0.261719 L 1023.480469 0.261719 L 1023.480469 168.363281 Z M 0.496094 168.363281 " fill-opacity="1" fill-rule="nonzero"/></g><g clip-path="url(#40ef3205cc)"><path fill="#ffffff" d="M 0.507812 162.230469 L 0.507812 155.804688 L 1023.492188 155.804688 L 1023.492188 162.230469 Z M 0.507812 162.230469 " fill-opacity="1" fill-rule="nonzero"/></g><g clip-path="url(#8c59cc6b80)"><path fill="#ffffff" d="M 0.484375 12.894531 L 0.484375 6.472656 L 1023.46875 6.472656 L 1023.46875 12.894531 Z M 0.484375 12.894531 " fill-opacity="1" fill-rule="nonzero"/></g><g clip-path="url(#d8ceece49d)"><path fill="#ffffff" d="M 0.507812 81.820312 L 14.792969 81.820312 L 14.792969 86.808594 L 0.507812 86.808594 Z M 0.507812 81.820312 " fill-opacity="1" fill-rule="nonzero"/></g><path fill="#ffffff" d="M 37.320312 81.820312 L 65.890625 81.820312 L 65.890625 86.808594 L 37.320312 86.808594 Z M 37.320312 81.820312 " fill-opacity="1" fill-rule="nonzero"/><path fill="#ffffff" d="M 88.414062 81.820312 L 116.988281 81.820312 L 116.988281 86.808594 L 88.414062 86.808594 Z M 88.414062 81.820312 " fill-opacity="1" fill-rule="nonzero"/><path fill="#ffffff" d="M 139.4375 81.820312 L 168.007812 81.820312 L 168.007812 86.808594 L 139.4375 86.808594 Z M 139.4375 81.820312 " fill-opacity="1" fill-rule="nonzero"/><path fill="#ffffff" d="M 190.53125 81.820312 L 219.105469 81.820312 L 219.105469 86.808594 L 190.53125 86.808594 Z M 190.53125 81.820312 " fill-opacity="1" fill-rule="nonzero"/><path fill="#ffffff" d="M 804.898438 81.820312 L 833.46875 81.820312 L 833.46875 86.808594 L 804.898438 86.808594 Z M 804.898438 81.820312 " fill-opacity="1" fill-rule="nonzero"/><path fill="#ffffff" d="M 855.992188 81.820312 L 884.566406 81.820312 L 884.566406 86.808594 L 855.992188 86.808594 Z M 855.992188 81.820312 " fill-opacity="1" fill-rule="nonzero"/><path fill="#ffffff" d="M 907.015625 81.820312 L 935.585938 81.820312 L 935.585938 86.808594 L 907.015625 86.808594 Z M 907.015625 81.820312 " fill-opacity="1" fill-rule="nonzero"/><path fill="#ffffff" d="M 958.109375 81.820312 L 986.683594 81.820312 L 986.683594 86.808594 L 958.109375 86.808594 Z M 958.109375 81.820312 " fill-opacity="1" fill-rule="nonzero"/><g clip-path="url(#38b16cf91d)"><path fill="#ffffff" d="M 1009.207031 81.820312 L 1023.492188 81.820312 L 1023.492188 86.808594 L 1009.207031 86.808594 Z M 1009.207031 81.820312 " fill-opacity="1" fill-rule="nonzero"/></g><path fill="#ffffff" d="M 255.914062 81.820312 L 241.628906 81.820312 L 241.628906 86.808594 L 270.199219 86.808594 L 270.199219 81.820312 Z M 255.914062 81.820312 " fill-opacity="1" fill-rule="nonzero"/><path fill="#ffffff" d="M 293.179688 81.820312 L 321.75 81.820312 L 321.75 86.808594 L 293.179688 86.808594 Z M 293.179688 81.820312 " fill-opacity="1" fill-rule="nonzero"/><path fill="#ffffff" d="M 344.273438 81.820312 L 372.847656 81.820312 L 372.847656 86.808594 L 344.273438 86.808594 Z M 344.273438 81.820312 " fill-opacity="1" fill-rule="nonzero"/><path fill="#ffffff" d="M 395.296875 81.820312 L 423.867188 81.820312 L 423.867188 86.808594 L 395.296875 86.808594 Z M 395.296875 81.820312 " fill-opacity="1" fill-rule="nonzero"/><path fill="#ffffff" d="M 446.390625 81.820312 L 474.964844 81.820312 L 474.964844 86.808594 L 446.390625 86.808594 Z M 446.390625 81.820312 " fill-opacity="1" fill-rule="nonzero"/><path fill="#ffffff" d="M 549.039062 81.820312 L 577.609375 81.820312 L 577.609375 86.808594 L 549.039062 86.808594 Z M 549.039062 81.820312 " fill-opacity="1" fill-rule="nonzero"/><path fill="#ffffff" d="M 600.132812 81.820312 L 628.707031 81.820312 L 628.707031 86.808594 L 600.132812 86.808594 Z M 600.132812 81.820312 " fill-opacity="1" fill-rule="nonzero"/><path fill="#ffffff" d="M 651.15625 81.820312 L 679.726562 81.820312 L 679.726562 86.808594 L 651.15625 86.808594 Z M 651.15625 81.820312 " fill-opacity="1" fill-rule="nonzero"/><path fill="#ffffff" d="M 702.25 81.820312 L 730.824219 81.820312 L 730.824219 86.808594 L 702.25 86.808594 Z M 702.25 81.820312 " fill-opacity="1" fill-rule="nonzero"/><path fill="#ffffff" d="M 768.085938 81.820312 L 753.800781 81.820312 L 753.800781 86.808594 L 782.371094 86.808594 L 782.371094 81.820312 Z M 768.085938 81.820312 " fill-opacity="1" fill-rule="nonzero"/><path fill="#ffffff" d="M 497.488281 81.820312 L 497.488281 86.808594 L 526.058594 86.808594 L 526.058594 81.820312 Z M 497.488281 81.820312 " fill-opacity="1" fill-rule="nonzero"/><g fill="#45151b" fill-opacity="1"><g transform="translate(547.255357, 57.946984)"><g><path d="M 0.71875 0 L 0.71875 -2.828125 L 0.15625 -2.828125 L 0.15625 -3.21875 L 0.71875 -3.21875 C 0.6875 -3.363281 0.671875 -3.5 0.671875 -3.625 C 0.671875 -3.832031 0.710938 -4.007812 0.796875 -4.15625 C 0.890625 -4.300781 1.015625 -4.40625 1.171875 -4.46875 C 1.328125 -4.539062 1.507812 -4.578125 1.71875 -4.578125 C 2.039062 -4.578125 2.285156 -4.507812 2.453125 -4.375 L 2.265625 -4.03125 L 2.203125 -4.03125 C 2.078125 -4.125 1.914062 -4.171875 1.71875 -4.171875 C 1.53125 -4.171875 1.382812 -4.125 1.28125 -4.03125 C 1.1875 -3.9375 1.140625 -3.796875 1.140625 -3.609375 C 1.140625 -3.503906 1.15625 -3.375 1.1875 -3.21875 L 2.21875 -3.21875 L 2.21875 -2.828125 L 1.1875 -2.828125 L 1.1875 0 Z M 0.71875 0 "/></g></g></g><g fill="#45151b" fill-opacity="1"><g transform="translate(549.578087, 57.946984)"><g><path d="M 0.71875 0 L 0.71875 -2.828125 L 0.15625 -2.828125 L 0.15625 -3.21875 L 0.71875 -3.21875 C 0.6875 -3.363281 0.671875 -3.5 0.671875 -3.625 C 0.671875 -3.832031 0.710938 -4.007812 0.796875 -4.15625 C 0.890625 -4.300781 1.015625 -4.40625 1.171875 -4.46875 C 1.328125 -4.539062 1.507812 -4.578125 1.71875 -4.578125 C 2.039062 -4.578125 2.285156 -4.507812 2.453125 -4.375 L 2.265625 -4.03125 L 2.203125 -4.03125 C 2.078125 -4.125 1.914062 -4.171875 1.71875 -4.171875 C 1.53125 -4.171875 1.382812 -4.125 1.28125 -4.03125 C 1.1875 -3.9375 1.140625 -3.796875 1.140625 -3.609375 C 1.140625 -3.503906 1.15625 -3.375 1.1875 -3.21875 L 2.21875 -3.21875 L 2.21875 -2.828125 L 1.1875 -2.828125 L 1.1875 0 Z M 0.71875 0 "/></g></g></g></svg>